<svg width="1920" height="1080" viewBox="0 0 1920 1080" fill="none" xmlns="http://www.w3.org/2000/svg">
<mask id="path-1-inside-1_0_4" fill="white">
<path d="M0 0H1920V1080H0V0Z"/>
</mask>
<path d="M0 0H1920V1080H0V0Z" fill="#202020"/>
<path d="M0 1081H2.5V1079H0V1081ZM7.5 1081H12.5V1079H7.5V1081ZM17.5 1081H22.5V1079H17.5V1081ZM27.5 1081H32.5V1079H27.5V1081ZM37.5 1081H42.5V1079H37.5V1081ZM47.5 1081H52.5V1079H47.5V1081ZM57.5 1081H62.5V1079H57.5V1081ZM67.5 1081H72.5V1079H67.5V1081ZM77.5 1081H82.5V1079H77.5V1081ZM87.5 1081H92.5V1079H87.5V1081ZM97.5 1081H102.5V1079H97.5V1081ZM107.5 1081H112.5V1079H107.5V1081ZM117.5 1081H122.5V1079H117.5V1081ZM127.5 1081H132.5V1079H127.5V1081ZM137.5 1081H142.5V1079H137.5V1081ZM147.5 1081H152.5V1079H147.5V1081ZM157.5 1081H162.5V1079H157.5V1081ZM167.5 1081H172.5V1079H167.5V1081ZM177.5 1081H182.5V1079H177.5V1081ZM187.5 1081H192.5V1079H187.5V1081ZM197.5 1081H202.5V1079H197.5V1081ZM207.5 1081H212.5V1079H207.5V1081ZM217.5 1081H222.5V1079H217.5V1081ZM227.5 1081H232.5V1079H227.5V1081ZM237.5 1081H242.5V1079H237.5V1081ZM247.5 1081H252.5V1079H247.5V1081ZM257.5 1081H262.5V1079H257.5V1081ZM267.5 1081H272.5V1079H267.5V1081ZM277.5 1081H282.5V1079H277.5V1081ZM287.5 1081H292.5V1079H287.5V1081ZM297.5 1081H302.5V1079H297.5V1081ZM307.5 1081H312.5V1079H307.5V1081ZM317.5 1081H322.5V1079H317.5V1081ZM327.5 1081H332.5V1079H327.5V1081ZM337.5 1081H342.5V1079H337.5V1081ZM347.5 1081H352.5V1079H347.5V1081ZM357.5 1081H362.5V1079H357.5V1081ZM367.5 1081H372.5V1079H367.5V1081ZM377.5 1081H382.5V1079H377.5V1081ZM387.5 1081H392.5V1079H387.5V1081ZM397.5 1081H402.5V1079H397.5V1081ZM407.5 1081H412.5V1079H407.5V1081ZM417.5 1081H422.5V1079H417.5V1081ZM427.5 1081H432.5V1079H427.5V1081ZM437.5 1081H442.5V1079H437.5V1081ZM447.5 1081H452.5V1079H447.5V1081ZM457.5 1081H462.5V1079H457.5V1081ZM467.5 1081H472.5V1079H467.5V1081ZM477.5 1081H482.5V1079H477.5V1081ZM487.5 1081H492.5V1079H487.5V1081ZM497.5 1081H502.5V1079H497.5V1081ZM507.5 1081H512.5V1079H507.5V1081ZM517.5 1081H522.5V1079H517.5V1081ZM527.5 1081H532.5V1079H527.5V1081ZM537.5 1081H542.5V1079H537.5V1081ZM547.5 1081H552.5V1079H547.5V1081ZM557.5 1081H562.5V1079H557.5V1081ZM567.5 1081H572.5V1079H567.5V1081ZM577.5 1081H582.5V1079H577.5V1081ZM587.5 1081H592.5V1079H587.5V1081ZM597.5 1081H602.5V1079H597.5V1081ZM607.5 1081H612.5V1079H607.5V1081ZM617.5 1081H622.5V1079H617.5V1081ZM627.5 1081H632.5V1079H627.5V1081ZM637.5 1081H642.5V1079H637.5V1081ZM647.5 1081H652.5V1079H647.5V1081ZM657.5 1081H662.5V1079H657.5V1081ZM667.5 1081H672.5V1079H667.5V1081ZM677.5 1081H682.5V1079H677.5V1081ZM687.5 1081H692.5V1079H687.5V1081ZM697.5 1081H702.5V1079H697.5V1081ZM707.5 1081H712.5V1079H707.5V1081ZM717.5 1081H722.5V1079H717.5V1081ZM727.5 1081H732.5V1079H727.5V1081ZM737.5 1081H742.5V1079H737.5V1081ZM747.5 1081H752.5V1079H747.5V1081ZM757.5 1081H762.5V1079H757.5V1081ZM767.5 1081H772.5V1079H767.5V1081ZM777.5 1081H782.5V1079H777.5V1081ZM787.5 1081H792.5V1079H787.5V1081ZM797.5 1081H802.5V1079H797.5V1081ZM807.5 1081H812.5V1079H807.5V1081ZM817.5 1081H822.5V1079H817.5V1081ZM827.5 1081H832.5V1079H827.5V1081ZM837.5 1081H842.5V1079H837.5V1081ZM847.5 1081H852.5V1079H847.5V1081ZM857.5 1081H862.5V1079H857.5V1081ZM867.5 1081H872.5V1079H867.5V1081ZM877.5 1081H882.5V1079H877.5V1081ZM887.5 1081H892.5V1079H887.5V1081ZM897.5 1081H902.5V1079H897.5V1081ZM907.5 1081H912.5V1079H907.5V1081ZM917.5 1081H922.5V1079H917.5V1081ZM927.5 1081H932.5V1079H927.5V1081ZM937.5 1081H942.5V1079H937.5V1081ZM947.5 1081H952.5V1079H947.5V1081ZM957.5 1081H962.5V1079H957.5V1081ZM967.5 1081H972.5V1079H967.5V1081ZM977.5 1081H982.5V1079H977.5V1081ZM987.5 1081H992.5V1079H987.5V1081ZM997.5 1081H1002.5V1079H997.5V1081ZM1007.5 1081H1012.5V1079H1007.5V1081ZM1017.5 1081H1022.5V1079H1017.5V1081ZM1027.5 1081H1032.5V1079H1027.5V1081ZM1037.5 1081H1042.5V1079H1037.5V1081ZM1047.5 1081H1052.5V1079H1047.5V1081ZM1057.5 1081H1062.5V1079H1057.5V1081ZM1067.5 1081H1072.5V1079H1067.5V1081ZM1077.5 1081H1082.5V1079H1077.5V1081ZM1087.5 1081H1092.5V1079H1087.5V1081ZM1097.5 1081H1102.5V1079H1097.5V1081ZM1107.5 1081H1112.5V1079H1107.5V1081ZM1117.5 1081H1122.5V1079H1117.5V1081ZM1127.5 1081H1132.5V1079H1127.5V1081ZM1137.5 1081H1142.5V1079H1137.5V1081ZM1147.5 1081H1152.5V1079H1147.5V1081ZM1157.5 1081H1162.5V1079H1157.5V1081ZM1167.5 1081H1172.5V1079H1167.5V1081ZM1177.5 1081H1182.5V1079H1177.5V1081ZM1187.5 1081H1192.5V1079H1187.5V1081ZM1197.5 1081H1202.5V1079H1197.5V1081ZM1207.5 1081H1212.5V1079H1207.5V1081ZM1217.5 1081H1222.5V1079H1217.5V1081ZM1227.5 1081H1232.5V1079H1227.5V1081ZM1237.5 1081H1242.5V1079H1237.5V1081ZM1247.5 1081H1252.5V1079H1247.5V1081ZM1257.5 1081H1262.5V1079H1257.5V1081ZM1267.5 1081H1272.5V1079H1267.5V1081ZM1277.5 1081H1282.5V1079H1277.5V1081ZM1287.5 1081H1292.5V1079H1287.5V1081ZM1297.5 1081H1302.5V1079H1297.5V1081ZM1307.5 1081H1312.5V1079H1307.5V1081ZM1317.5 1081H1322.5V1079H1317.5V1081ZM1327.5 1081H1332.5V1079H1327.5V1081ZM1337.5 1081H1342.5V1079H1337.5V1081ZM1347.5 1081H1352.5V1079H1347.5V1081ZM1357.5 1081H1362.5V1079H1357.5V1081ZM1367.5 1081H1372.5V1079H1367.5V1081ZM1377.5 1081H1382.5V1079H1377.5V1081ZM1387.5 1081H1392.5V1079H1387.5V1081ZM1397.5 1081H1402.5V1079H1397.5V1081ZM1407.5 1081H1412.5V1079H1407.5V1081ZM1417.5 1081H1422.5V1079H1417.5V1081ZM1427.5 1081H1432.5V1079H1427.5V1081ZM1437.5 1081H1442.5V1079H1437.5V1081ZM1447.5 1081H1452.5V1079H1447.5V1081ZM1457.5 1081H1462.5V1079H1457.5V1081ZM1467.5 1081H1472.5V1079H1467.5V1081ZM1477.5 1081H1482.5V1079H1477.5V1081ZM1487.5 1081H1492.5V1079H1487.5V1081ZM1497.5 1081H1502.5V1079H1497.5V1081ZM1507.5 1081H1512.5V1079H1507.5V1081ZM1517.5 1081H1522.5V1079H1517.5V1081ZM1527.5 1081H1532.5V1079H1527.5V1081ZM1537.5 1081H1542.5V1079H1537.5V1081ZM1547.5 1081H1552.5V1079H1547.5V1081ZM1557.5 1081H1562.5V1079H1557.5V1081ZM1567.5 1081H1572.5V1079H1567.5V1081ZM1577.5 1081H1582.5V1079H1577.5V1081ZM1587.5 1081H1592.5V1079H1587.5V1081ZM1597.5 1081H1602.5V1079H1597.5V1081ZM1607.5 1081H1612.5V1079H1607.5V1081ZM1617.5 1081H1622.5V1079H1617.5V1081ZM1627.5 1081H1632.5V1079H1627.5V1081ZM1637.5 1081H1642.5V1079H1637.5V1081ZM1647.5 1081H1652.5V1079H1647.5V1081ZM1657.5 1081H1662.5V1079H1657.5V1081ZM1667.5 1081H1672.5V1079H1667.5V1081ZM1677.5 1081H1682.5V1079H1677.5V1081ZM1687.5 1081H1692.5V1079H1687.5V1081ZM1697.5 1081H1702.5V1079H1697.5V1081ZM1707.5 1081H1712.5V1079H1707.5V1081ZM1717.5 1081H1722.5V1079H1717.5V1081ZM1727.5 1081H1732.5V1079H1727.5V1081ZM1737.5 1081H1742.5V1079H1737.5V1081ZM1747.5 1081H1752.5V1079H1747.5V1081ZM1757.5 1081H1762.5V1079H1757.5V1081ZM1767.5 1081H1772.5V1079H1767.5V1081ZM1777.5 1081H1782.5V1079H1777.5V1081ZM1787.5 1081H1792.5V1079H1787.5V1081ZM1797.5 1081H1802.5V1079H1797.5V1081ZM1807.5 1081H1812.5V1079H1807.5V1081ZM1817.5 1081H1822.5V1079H1817.5V1081ZM1827.5 1081H1832.5V1079H1827.5V1081ZM1837.5 1081H1842.5V1079H1837.5V1081ZM1847.5 1081H1852.5V1079H1847.5V1081ZM1857.5 1081H1862.5V1079H1857.5V1081ZM1867.5 1081H1872.5V1079H1867.5V1081ZM1877.5 1081H1882.5V1079H1877.5V1081ZM1887.5 1081H1892.5V1079H1887.5V1081ZM1897.5 1081H1902.5V1079H1897.5V1081ZM1907.5 1081H1912.5V1079H1907.5V1081ZM1917.5 1081H1920V1079H1917.5V1081ZM0 1082H2.5V1078H0V1082ZM7.5 1082H12.5V1078H7.5V1082ZM17.5 1082H22.5V1078H17.5V1082ZM27.5 1082H32.5V1078H27.5V1082ZM37.5 1082H42.5V1078H37.5V1082ZM47.5 1082H52.5V1078H47.5V1082ZM57.5 1082H62.5V1078H57.5V1082ZM67.5 1082H72.5V1078H67.5V1082ZM77.5 1082H82.5V1078H77.5V1082ZM87.5 1082H92.5V1078H87.5V1082ZM97.5 1082H102.5V1078H97.5V1082ZM107.5 1082H112.5V1078H107.5V1082ZM117.5 1082H122.5V1078H117.5V1082ZM127.5 1082H132.5V1078H127.5V1082ZM137.5 1082H142.5V1078H137.5V1082ZM147.5 1082H152.5V1078H147.5V1082ZM157.5 1082H162.5V1078H157.5V1082ZM167.5 1082H172.5V1078H167.5V1082ZM177.5 1082H182.5V1078H177.5V1082ZM187.5 1082H192.5V1078H187.5V1082ZM197.5 1082H202.5V1078H197.5V1082ZM207.5 1082H212.5V1078H207.5V1082ZM217.5 1082H222.5V1078H217.5V1082ZM227.5 1082H232.5V1078H227.5V1082ZM237.5 1082H242.5V1078H237.5V1082ZM247.5 1082H252.5V1078H247.5V1082ZM257.5 1082H262.5V1078H257.5V1082ZM267.5 1082H272.5V1078H267.5V1082ZM277.5 1082H282.5V1078H277.5V1082ZM287.5 1082H292.5V1078H287.5V1082ZM297.5 1082H302.5V1078H297.5V1082ZM307.5 1082H312.5V1078H307.5V1082ZM317.5 1082H322.5V1078H317.5V1082ZM327.5 1082H332.5V1078H327.5V1082ZM337.5 1082H342.5V1078H337.5V1082ZM347.5 1082H352.5V1078H347.5V1082ZM357.5 1082H362.5V1078H357.5V1082ZM367.5 1082H372.5V1078H367.5V1082ZM377.5 1082H382.5V1078H377.5V1082ZM387.5 1082H392.5V1078H387.5V1082ZM397.5 1082H402.5V1078H397.5V1082ZM407.5 1082H412.5V1078H407.5V1082ZM417.5 1082H422.5V1078H417.5V1082ZM427.5 1082H432.5V1078H427.5V1082ZM437.5 1082H442.5V1078H437.5V1082ZM447.5 1082H452.5V1078H447.5V1082ZM457.5 1082H462.5V1078H457.5V1082ZM467.5 1082H472.5V1078H467.5V1082ZM477.5 1082H482.5V1078H477.5V1082ZM487.5 1082H492.5V1078H487.5V1082ZM497.5 1082H502.5V1078H497.5V1082ZM507.5 1082H512.5V1078H507.5V1082ZM517.5 1082H522.5V1078H517.5V1082ZM527.5 1082H532.5V1078H527.5V1082ZM537.5 1082H542.5V1078H537.5V1082ZM547.5 1082H552.5V1078H547.5V1082ZM557.5 1082H562.5V1078H557.5V1082ZM567.5 1082H572.5V1078H567.5V1082ZM577.5 1082H582.5V1078H577.5V1082ZM587.5 1082H592.5V1078H587.5V1082ZM597.5 1082H602.5V1078H597.5V1082ZM607.5 1082H612.5V1078H607.5V1082ZM617.5 1082H622.5V1078H617.5V1082ZM627.5 1082H632.5V1078H627.5V1082ZM637.5 1082H642.5V1078H637.5V1082ZM647.5 1082H652.5V1078H647.5V1082ZM657.5 1082H662.5V1078H657.5V1082ZM667.5 1082H672.5V1078H667.5V1082ZM677.5 1082H682.5V1078H677.5V1082ZM687.5 1082H692.5V1078H687.5V1082ZM697.5 1082H702.5V1078H697.5V1082ZM707.5 1082H712.5V1078H707.5V1082ZM717.5 1082H722.5V1078H717.5V1082ZM727.5 1082H732.5V1078H727.5V1082ZM737.5 1082H742.5V1078H737.5V1082ZM747.5 1082H752.5V1078H747.5V1082ZM757.5 1082H762.5V1078H757.5V1082ZM767.5 1082H772.5V1078H767.5V1082ZM777.5 1082H782.5V1078H777.5V1082ZM787.5 1082H792.5V1078H787.5V1082ZM797.5 1082H802.5V1078H797.5V1082ZM807.5 1082H812.5V1078H807.5V1082ZM817.5 1082H822.5V1078H817.5V1082ZM827.5 1082H832.5V1078H827.5V1082ZM837.5 1082H842.5V1078H837.5V1082ZM847.5 1082H852.5V1078H847.5V1082ZM857.5 1082H862.5V1078H857.5V1082ZM867.5 1082H872.5V1078H867.5V1082ZM877.5 1082H882.5V1078H877.5V1082ZM887.5 1082H892.5V1078H887.5V1082ZM897.5 1082H902.5V1078H897.5V1082ZM907.5 1082H912.5V1078H907.5V1082ZM917.5 1082H922.5V1078H917.5V1082ZM927.5 1082H932.5V1078H927.5V1082ZM937.5 1082H942.5V1078H937.5V1082ZM947.5 1082H952.5V1078H947.5V1082ZM957.5 1082H962.5V1078H957.5V1082ZM967.5 1082H972.5V1078H967.5V1082ZM977.5 1082H982.5V1078H977.5V1082ZM987.5 1082H992.5V1078H987.5V1082ZM997.5 1082H1002.5V1078H997.5V1082ZM1007.5 1082H1012.5V1078H1007.5V1082ZM1017.5 1082H1022.5V1078H1017.5V1082ZM1027.5 1082H1032.5V1078H1027.5V1082ZM1037.5 1082H1042.5V1078H1037.5V1082ZM1047.5 1082H1052.5V1078H1047.5V1082ZM1057.5 1082H1062.5V1078H1057.5V1082ZM1067.5 1082H1072.5V1078H1067.5V1082ZM1077.5 1082H1082.5V1078H1077.5V1082ZM1087.5 1082H1092.5V1078H1087.5V1082ZM1097.5 1082H1102.5V1078H1097.5V1082ZM1107.5 1082H1112.5V1078H1107.5V1082ZM1117.5 1082H1122.5V1078H1117.5V1082ZM1127.5 1082H1132.5V1078H1127.5V1082ZM1137.5 1082H1142.5V1078H1137.5V1082ZM1147.5 1082H1152.5V1078H1147.5V1082ZM1157.5 1082H1162.5V1078H1157.5V1082ZM1167.5 1082H1172.5V1078H1167.5V1082ZM1177.5 1082H1182.5V1078H1177.5V1082ZM1187.5 1082H1192.5V1078H1187.5V1082ZM1197.5 1082H1202.5V1078H1197.5V1082ZM1207.5 1082H1212.5V1078H1207.5V1082ZM1217.5 1082H1222.5V1078H1217.5V1082ZM1227.5 1082H1232.5V1078H1227.5V1082ZM1237.5 1082H1242.5V1078H1237.5V1082ZM1247.5 1082H1252.5V1078H1247.5V1082ZM1257.5 1082H1262.5V1078H1257.5V1082ZM1267.5 1082H1272.5V1078H1267.5V1082ZM1277.5 1082H1282.5V1078H1277.5V1082ZM1287.5 1082H1292.5V1078H1287.5V1082ZM1297.5 1082H1302.5V1078H1297.5V1082ZM1307.5 1082H1312.5V1078H1307.5V1082ZM1317.5 1082H1322.5V1078H1317.5V1082ZM1327.5 1082H1332.5V1078H1327.5V1082ZM1337.5 1082H1342.5V1078H1337.5V1082ZM1347.5 1082H1352.5V1078H1347.5V1082ZM1357.5 1082H1362.5V1078H1357.5V1082ZM1367.5 1082H1372.5V1078H1367.5V1082ZM1377.5 1082H1382.5V1078H1377.5V1082ZM1387.5 1082H1392.5V1078H1387.5V1082ZM1397.5 1082H1402.5V1078H1397.5V1082ZM1407.5 1082H1412.5V1078H1407.5V1082ZM1417.5 1082H1422.5V1078H1417.5V1082ZM1427.5 1082H1432.5V1078H1427.5V1082ZM1437.5 1082H1442.5V1078H1437.5V1082ZM1447.5 1082H1452.5V1078H1447.5V1082ZM1457.5 1082H1462.5V1078H1457.5V1082ZM1467.5 1082H1472.5V1078H1467.5V1082ZM1477.5 1082H1482.5V1078H1477.5V1082ZM1487.5 1082H1492.5V1078H1487.5V1082ZM1497.5 1082H1502.5V1078H1497.5V1082ZM1507.5 1082H1512.5V1078H1507.5V1082ZM1517.5 1082H1522.5V1078H1517.5V1082ZM1527.5 1082H1532.5V1078H1527.5V1082ZM1537.5 1082H1542.5V1078H1537.5V1082ZM1547.5 1082H1552.5V1078H1547.5V1082ZM1557.5 1082H1562.5V1078H1557.5V1082ZM1567.5 1082H1572.5V1078H1567.5V1082ZM1577.5 1082H1582.5V1078H1577.5V1082ZM1587.5 1082H1592.5V1078H1587.5V1082ZM1597.5 1082H1602.5V1078H1597.5V1082ZM1607.5 1082H1612.5V1078H1607.5V1082ZM1617.5 1082H1622.5V1078H1617.5V1082ZM1627.5 1082H1632.5V1078H1627.5V1082ZM1637.5 1082H1642.5V1078H1637.5V1082ZM1647.5 1082H1652.5V1078H1647.5V1082ZM1657.5 1082H1662.5V1078H1657.5V1082ZM1667.5 1082H1672.5V1078H1667.5V1082ZM1677.5 1082H1682.5V1078H1677.5V1082ZM1687.5 1082H1692.5V1078H1687.5V1082ZM1697.5 1082H1702.5V1078H1697.5V1082ZM1707.5 1082H1712.5V1078H1707.5V1082ZM1717.5 1082H1722.5V1078H1717.5V1082ZM1727.5 1082H1732.5V1078H1727.5V1082ZM1737.5 1082H1742.5V1078H1737.5V1082ZM1747.5 1082H1752.5V1078H1747.5V1082ZM1757.5 1082H1762.5V1078H1757.5V1082ZM1767.5 1082H1772.5V1078H1767.5V1082ZM1777.5 1082H1782.5V1078H1777.5V1082ZM1787.5 1082H1792.5V1078H1787.5V1082ZM1797.5 1082H1802.5V1078H1797.5V1082ZM1807.5 1082H1812.5V1078H1807.5V1082ZM1817.5 1082H1822.5V1078H1817.5V1082ZM1827.5 1082H1832.5V1078H1827.5V1082ZM1837.5 1082H1842.5V1078H1837.5V1082ZM1847.5 1082H1852.5V1078H1847.5V1082ZM1857.5 1082H1862.5V1078H1857.5V1082ZM1867.5 1082H1872.5V1078H1867.5V1082ZM1877.5 1082H1882.5V1078H1877.5V1082ZM1887.5 1082H1892.5V1078H1887.5V1082ZM1897.5 1082H1902.5V1078H1897.5V1082ZM1907.5 1082H1912.5V1078H1907.5V1082ZM1917.5 1082H1920V1078H1917.5V1082Z" fill="#676565" fill-opacity="0.5" mask="url(#path-1-inside-1_0_4)"/>
<circle opacity="0.2" cx="1681.5" cy="749.5" r="125.5" stroke="white" stroke-width="2"/>
<circle opacity="0.2" cx="261" cy="904" r="113" stroke="white" stroke-width="2"/>
<circle opacity="0.2" cx="295" cy="279" r="100" stroke="white" stroke-width="2"/>
</svg>
