<svg width="1920" height="414" viewBox="0 0 1920 414" fill="none" xmlns="http://www.w3.org/2000/svg">
<mask id="path-1-inside-1_0_42" fill="white">
<path d="M0 0H1920V414H0V0Z"/>
</mask>
<path d="M0 0H1920V414H0V0Z" fill="#202020"/>
<path d="M0 415H2.5V413H0V415ZM7.5 415H12.5V413H7.5V415ZM17.5 415H22.5V413H17.5V415ZM27.5 415H32.5V413H27.5V415ZM37.5 415H42.5V413H37.5V415ZM47.5 415H52.5V413H47.5V415ZM57.5 415H62.5V413H57.5V415ZM67.5 415H72.5V413H67.5V415ZM77.5 415H82.5V413H77.5V415ZM87.5 415H92.5V413H87.5V415ZM97.5 415H102.5V413H97.5V415ZM107.5 415H112.5V413H107.5V415ZM117.5 415H122.5V413H117.5V415ZM127.5 415H132.5V413H127.5V415ZM137.5 415H142.5V413H137.5V415ZM147.5 415H152.5V413H147.5V415ZM157.5 415H162.5V413H157.5V415ZM167.5 415H172.5V413H167.5V415ZM177.5 415H182.5V413H177.5V415ZM187.5 415H192.5V413H187.5V415ZM197.5 415H202.5V413H197.5V415ZM207.5 415H212.5V413H207.5V415ZM217.5 415H222.5V413H217.5V415ZM227.5 415H232.5V413H227.5V415ZM237.5 415H242.5V413H237.5V415ZM247.5 415H252.5V413H247.5V415ZM257.5 415H262.5V413H257.5V415ZM267.5 415H272.5V413H267.5V415ZM277.5 415H282.5V413H277.5V415ZM287.5 415H292.5V413H287.5V415ZM297.5 415H302.5V413H297.5V415ZM307.5 415H312.5V413H307.5V415ZM317.5 415H322.5V413H317.5V415ZM327.5 415H332.5V413H327.5V415ZM337.5 415H342.5V413H337.5V415ZM347.5 415H352.5V413H347.5V415ZM357.5 415H362.5V413H357.5V415ZM367.5 415H372.5V413H367.5V415ZM377.5 415H382.5V413H377.5V415ZM387.5 415H392.5V413H387.5V415ZM397.5 415H402.5V413H397.5V415ZM407.5 415H412.5V413H407.5V415ZM417.5 415H422.5V413H417.5V415ZM427.5 415H432.5V413H427.5V415ZM437.5 415H442.5V413H437.5V415ZM447.5 415H452.5V413H447.5V415ZM457.5 415H462.5V413H457.5V415ZM467.5 415H472.5V413H467.5V415ZM477.5 415H482.5V413H477.5V415ZM487.5 415H492.5V413H487.5V415ZM497.5 415H502.5V413H497.5V415ZM507.5 415H512.5V413H507.5V415ZM517.5 415H522.5V413H517.5V415ZM527.5 415H532.5V413H527.5V415ZM537.5 415H542.5V413H537.5V415ZM547.5 415H552.5V413H547.5V415ZM557.5 415H562.5V413H557.5V415ZM567.5 415H572.5V413H567.5V415ZM577.5 415H582.5V413H577.5V415ZM587.5 415H592.5V413H587.5V415ZM597.5 415H602.5V413H597.5V415ZM607.5 415H612.5V413H607.5V415ZM617.5 415H622.5V413H617.5V415ZM627.5 415H632.5V413H627.5V415ZM637.5 415H642.5V413H637.5V415ZM647.5 415H652.5V413H647.5V415ZM657.5 415H662.5V413H657.5V415ZM667.5 415H672.5V413H667.5V415ZM677.5 415H682.5V413H677.5V415ZM687.5 415H692.5V413H687.5V415ZM697.5 415H702.5V413H697.5V415ZM707.5 415H712.5V413H707.5V415ZM717.5 415H722.5V413H717.5V415ZM727.5 415H732.5V413H727.5V415ZM737.5 415H742.5V413H737.5V415ZM747.5 415H752.5V413H747.5V415ZM757.5 415H762.5V413H757.5V415ZM767.5 415H772.5V413H767.5V415ZM777.5 415H782.5V413H777.5V415ZM787.5 415H792.5V413H787.5V415ZM797.5 415H802.5V413H797.5V415ZM807.5 415H812.5V413H807.5V415ZM817.5 415H822.5V413H817.5V415ZM827.5 415H832.5V413H827.5V415ZM837.5 415H842.5V413H837.5V415ZM847.5 415H852.5V413H847.5V415ZM857.5 415H862.5V413H857.5V415ZM867.5 415H872.5V413H867.5V415ZM877.5 415H882.5V413H877.5V415ZM887.5 415H892.5V413H887.5V415ZM897.5 415H902.5V413H897.5V415ZM907.5 415H912.5V413H907.5V415ZM917.5 415H922.5V413H917.5V415ZM927.5 415H932.5V413H927.5V415ZM937.5 415H942.5V413H937.5V415ZM947.5 415H952.5V413H947.5V415ZM957.5 415H962.5V413H957.5V415ZM967.5 415H972.5V413H967.5V415ZM977.5 415H982.5V413H977.5V415ZM987.5 415H992.5V413H987.5V415ZM997.5 415H1002.5V413H997.5V415ZM1007.5 415H1012.5V413H1007.5V415ZM1017.5 415H1022.5V413H1017.5V415ZM1027.5 415H1032.5V413H1027.5V415ZM1037.5 415H1042.5V413H1037.5V415ZM1047.5 415H1052.5V413H1047.5V415ZM1057.5 415H1062.5V413H1057.5V415ZM1067.5 415H1072.5V413H1067.5V415ZM1077.5 415H1082.5V413H1077.5V415ZM1087.5 415H1092.5V413H1087.5V415ZM1097.5 415H1102.5V413H1097.5V415ZM1107.5 415H1112.5V413H1107.5V415ZM1117.5 415H1122.5V413H1117.5V415ZM1127.5 415H1132.5V413H1127.5V415ZM1137.5 415H1142.5V413H1137.5V415ZM1147.5 415H1152.5V413H1147.5V415ZM1157.5 415H1162.5V413H1157.5V415ZM1167.5 415H1172.5V413H1167.5V415ZM1177.5 415H1182.5V413H1177.5V415ZM1187.5 415H1192.5V413H1187.5V415ZM1197.5 415H1202.5V413H1197.5V415ZM1207.5 415H1212.5V413H1207.5V415ZM1217.5 415H1222.5V413H1217.5V415ZM1227.5 415H1232.5V413H1227.5V415ZM1237.5 415H1242.5V413H1237.5V415ZM1247.5 415H1252.5V413H1247.5V415ZM1257.5 415H1262.5V413H1257.5V415ZM1267.5 415H1272.5V413H1267.5V415ZM1277.5 415H1282.5V413H1277.5V415ZM1287.5 415H1292.5V413H1287.5V415ZM1297.5 415H1302.5V413H1297.5V415ZM1307.5 415H1312.5V413H1307.5V415ZM1317.5 415H1322.5V413H1317.5V415ZM1327.5 415H1332.5V413H1327.5V415ZM1337.5 415H1342.5V413H1337.5V415ZM1347.5 415H1352.5V413H1347.5V415ZM1357.5 415H1362.5V413H1357.5V415ZM1367.5 415H1372.5V413H1367.5V415ZM1377.5 415H1382.5V413H1377.5V415ZM1387.5 415H1392.5V413H1387.5V415ZM1397.5 415H1402.5V413H1397.5V415ZM1407.5 415H1412.5V413H1407.5V415ZM1417.5 415H1422.5V413H1417.5V415ZM1427.5 415H1432.5V413H1427.5V415ZM1437.5 415H1442.5V413H1437.5V415ZM1447.5 415H1452.5V413H1447.5V415ZM1457.5 415H1462.5V413H1457.5V415ZM1467.5 415H1472.5V413H1467.5V415ZM1477.5 415H1482.5V413H1477.5V415ZM1487.5 415H1492.5V413H1487.5V415ZM1497.5 415H1502.5V413H1497.5V415ZM1507.5 415H1512.5V413H1507.5V415ZM1517.5 415H1522.5V413H1517.5V415ZM1527.5 415H1532.5V413H1527.5V415ZM1537.5 415H1542.5V413H1537.5V415ZM1547.5 415H1552.5V413H1547.5V415ZM1557.5 415H1562.5V413H1557.5V415ZM1567.5 415H1572.5V413H1567.5V415ZM1577.5 415H1582.5V413H1577.5V415ZM1587.5 415H1592.5V413H1587.5V415ZM1597.5 415H1602.5V413H1597.5V415ZM1607.5 415H1612.5V413H1607.5V415ZM1617.5 415H1622.5V413H1617.5V415ZM1627.5 415H1632.5V413H1627.5V415ZM1637.5 415H1642.5V413H1637.5V415ZM1647.5 415H1652.5V413H1647.5V415ZM1657.5 415H1662.5V413H1657.5V415ZM1667.5 415H1672.5V413H1667.5V415ZM1677.5 415H1682.5V413H1677.5V415ZM1687.5 415H1692.5V413H1687.5V415ZM1697.5 415H1702.5V413H1697.5V415ZM1707.5 415H1712.5V413H1707.5V415ZM1717.5 415H1722.5V413H1717.5V415ZM1727.5 415H1732.5V413H1727.5V415ZM1737.5 415H1742.5V413H1737.5V415ZM1747.5 415H1752.5V413H1747.5V415ZM1757.5 415H1762.5V413H1757.5V415ZM1767.5 415H1772.5V413H1767.5V415ZM1777.5 415H1782.5V413H1777.5V415ZM1787.5 415H1792.5V413H1787.5V415ZM1797.5 415H1802.5V413H1797.5V415ZM1807.5 415H1812.5V413H1807.5V415ZM1817.5 415H1822.5V413H1817.5V415ZM1827.5 415H1832.5V413H1827.5V415ZM1837.5 415H1842.5V413H1837.5V415ZM1847.5 415H1852.5V413H1847.5V415ZM1857.5 415H1862.5V413H1857.5V415ZM1867.5 415H1872.5V413H1867.5V415ZM1877.5 415H1882.5V413H1877.5V415ZM1887.5 415H1892.5V413H1887.5V415ZM1897.5 415H1902.5V413H1897.5V415ZM1907.5 415H1912.5V413H1907.5V415ZM1917.5 415H1920V413H1917.5V415ZM0 416H2.5V412H0V416ZM7.5 416H12.5V412H7.5V416ZM17.5 416H22.5V412H17.5V416ZM27.5 416H32.5V412H27.5V416ZM37.5 416H42.5V412H37.5V416ZM47.5 416H52.5V412H47.5V416ZM57.5 416H62.5V412H57.5V416ZM67.5 416H72.5V412H67.5V416ZM77.5 416H82.5V412H77.5V416ZM87.5 416H92.5V412H87.5V416ZM97.5 416H102.5V412H97.5V416ZM107.5 416H112.5V412H107.5V416ZM117.5 416H122.5V412H117.5V416ZM127.5 416H132.5V412H127.5V416ZM137.5 416H142.5V412H137.5V416ZM147.5 416H152.5V412H147.5V416ZM157.5 416H162.5V412H157.5V416ZM167.5 416H172.5V412H167.5V416ZM177.5 416H182.5V412H177.5V416ZM187.5 416H192.5V412H187.5V416ZM197.5 416H202.5V412H197.5V416ZM207.5 416H212.5V412H207.5V416ZM217.5 416H222.5V412H217.5V416ZM227.5 416H232.5V412H227.5V416ZM237.5 416H242.5V412H237.5V416ZM247.5 416H252.5V412H247.5V416ZM257.5 416H262.5V412H257.5V416ZM267.5 416H272.5V412H267.5V416ZM277.5 416H282.5V412H277.5V416ZM287.5 416H292.5V412H287.5V416ZM297.5 416H302.5V412H297.5V416ZM307.5 416H312.5V412H307.5V416ZM317.5 416H322.5V412H317.5V416ZM327.5 416H332.5V412H327.5V416ZM337.5 416H342.5V412H337.5V416ZM347.5 416H352.5V412H347.5V416ZM357.5 416H362.5V412H357.5V416ZM367.5 416H372.5V412H367.5V416ZM377.5 416H382.5V412H377.5V416ZM387.5 416H392.5V412H387.5V416ZM397.5 416H402.5V412H397.5V416ZM407.5 416H412.5V412H407.5V416ZM417.5 416H422.5V412H417.5V416ZM427.5 416H432.5V412H427.5V416ZM437.5 416H442.5V412H437.5V416ZM447.5 416H452.5V412H447.5V416ZM457.5 416H462.5V412H457.5V416ZM467.5 416H472.5V412H467.5V416ZM477.5 416H482.5V412H477.5V416ZM487.5 416H492.5V412H487.5V416ZM497.5 416H502.5V412H497.5V416ZM507.5 416H512.5V412H507.5V416ZM517.5 416H522.5V412H517.5V416ZM527.5 416H532.5V412H527.5V416ZM537.5 416H542.5V412H537.5V416ZM547.5 416H552.5V412H547.5V416ZM557.5 416H562.5V412H557.5V416ZM567.5 416H572.5V412H567.5V416ZM577.5 416H582.5V412H577.5V416ZM587.5 416H592.5V412H587.5V416ZM597.5 416H602.5V412H597.5V416ZM607.5 416H612.5V412H607.5V416ZM617.5 416H622.5V412H617.5V416ZM627.5 416H632.5V412H627.5V416ZM637.5 416H642.5V412H637.5V416ZM647.5 416H652.5V412H647.5V416ZM657.5 416H662.5V412H657.5V416ZM667.5 416H672.5V412H667.5V416ZM677.5 416H682.5V412H677.5V416ZM687.5 416H692.5V412H687.5V416ZM697.5 416H702.5V412H697.5V416ZM707.5 416H712.5V412H707.5V416ZM717.5 416H722.5V412H717.5V416ZM727.5 416H732.5V412H727.5V416ZM737.5 416H742.5V412H737.5V416ZM747.5 416H752.5V412H747.5V416ZM757.5 416H762.5V412H757.5V416ZM767.5 416H772.5V412H767.5V416ZM777.5 416H782.5V412H777.5V416ZM787.5 416H792.5V412H787.5V416ZM797.5 416H802.5V412H797.5V416ZM807.5 416H812.5V412H807.5V416ZM817.5 416H822.5V412H817.5V416ZM827.5 416H832.5V412H827.5V416ZM837.5 416H842.5V412H837.5V416ZM847.5 416H852.5V412H847.5V416ZM857.5 416H862.5V412H857.5V416ZM867.5 416H872.5V412H867.5V416ZM877.5 416H882.5V412H877.5V416ZM887.5 416H892.5V412H887.5V416ZM897.5 416H902.5V412H897.5V416ZM907.5 416H912.5V412H907.5V416ZM917.5 416H922.5V412H917.5V416ZM927.5 416H932.5V412H927.5V416ZM937.5 416H942.5V412H937.5V416ZM947.5 416H952.5V412H947.5V416ZM957.5 416H962.5V412H957.5V416ZM967.5 416H972.5V412H967.5V416ZM977.5 416H982.5V412H977.5V416ZM987.5 416H992.5V412H987.5V416ZM997.5 416H1002.5V412H997.5V416ZM1007.5 416H1012.5V412H1007.5V416ZM1017.5 416H1022.5V412H1017.5V416ZM1027.5 416H1032.5V412H1027.5V416ZM1037.5 416H1042.5V412H1037.5V416ZM1047.5 416H1052.5V412H1047.5V416ZM1057.5 416H1062.5V412H1057.5V416ZM1067.5 416H1072.5V412H1067.5V416ZM1077.5 416H1082.5V412H1077.5V416ZM1087.5 416H1092.5V412H1087.5V416ZM1097.5 416H1102.5V412H1097.5V416ZM1107.5 416H1112.5V412H1107.5V416ZM1117.5 416H1122.5V412H1117.5V416ZM1127.5 416H1132.5V412H1127.5V416ZM1137.5 416H1142.5V412H1137.5V416ZM1147.5 416H1152.5V412H1147.5V416ZM1157.5 416H1162.5V412H1157.5V416ZM1167.5 416H1172.5V412H1167.5V416ZM1177.5 416H1182.5V412H1177.5V416ZM1187.5 416H1192.5V412H1187.5V416ZM1197.5 416H1202.5V412H1197.5V416ZM1207.5 416H1212.5V412H1207.5V416ZM1217.5 416H1222.5V412H1217.5V416ZM1227.5 416H1232.5V412H1227.5V416ZM1237.5 416H1242.5V412H1237.5V416ZM1247.5 416H1252.5V412H1247.5V416ZM1257.5 416H1262.5V412H1257.5V416ZM1267.5 416H1272.5V412H1267.5V416ZM1277.5 416H1282.5V412H1277.5V416ZM1287.5 416H1292.5V412H1287.5V416ZM1297.5 416H1302.5V412H1297.5V416ZM1307.5 416H1312.5V412H1307.5V416ZM1317.5 416H1322.5V412H1317.5V416ZM1327.5 416H1332.5V412H1327.5V416ZM1337.5 416H1342.5V412H1337.5V416ZM1347.5 416H1352.5V412H1347.5V416ZM1357.5 416H1362.5V412H1357.5V416ZM1367.5 416H1372.5V412H1367.5V416ZM1377.5 416H1382.5V412H1377.5V416ZM1387.5 416H1392.5V412H1387.5V416ZM1397.5 416H1402.5V412H1397.5V416ZM1407.5 416H1412.5V412H1407.5V416ZM1417.5 416H1422.5V412H1417.5V416ZM1427.5 416H1432.5V412H1427.5V416ZM1437.5 416H1442.5V412H1437.5V416ZM1447.5 416H1452.5V412H1447.5V416ZM1457.5 416H1462.5V412H1457.5V416ZM1467.5 416H1472.5V412H1467.5V416ZM1477.5 416H1482.5V412H1477.5V416ZM1487.5 416H1492.5V412H1487.5V416ZM1497.5 416H1502.5V412H1497.5V416ZM1507.5 416H1512.5V412H1507.5V416ZM1517.5 416H1522.5V412H1517.5V416ZM1527.5 416H1532.5V412H1527.5V416ZM1537.5 416H1542.5V412H1537.5V416ZM1547.5 416H1552.5V412H1547.5V416ZM1557.5 416H1562.5V412H1557.5V416ZM1567.5 416H1572.5V412H1567.5V416ZM1577.5 416H1582.5V412H1577.5V416ZM1587.5 416H1592.5V412H1587.5V416ZM1597.5 416H1602.5V412H1597.5V416ZM1607.5 416H1612.5V412H1607.5V416ZM1617.5 416H1622.5V412H1617.5V416ZM1627.5 416H1632.5V412H1627.5V416ZM1637.5 416H1642.5V412H1637.5V416ZM1647.5 416H1652.5V412H1647.5V416ZM1657.5 416H1662.5V412H1657.5V416ZM1667.5 416H1672.5V412H1667.5V416ZM1677.5 416H1682.5V412H1677.5V416ZM1687.5 416H1692.5V412H1687.5V416ZM1697.5 416H1702.5V412H1697.5V416ZM1707.5 416H1712.5V412H1707.5V416ZM1717.5 416H1722.5V412H1717.5V416ZM1727.5 416H1732.5V412H1727.5V416ZM1737.5 416H1742.5V412H1737.5V416ZM1747.5 416H1752.5V412H1747.5V416ZM1757.5 416H1762.5V412H1757.5V416ZM1767.5 416H1772.5V412H1767.5V416ZM1777.5 416H1782.5V412H1777.5V416ZM1787.5 416H1792.5V412H1787.5V416ZM1797.5 416H1802.5V412H1797.5V416ZM1807.5 416H1812.5V412H1807.5V416ZM1817.5 416H1822.5V412H1817.5V416ZM1827.5 416H1832.5V412H1827.5V416ZM1837.5 416H1842.5V412H1837.5V416ZM1847.5 416H1852.5V412H1847.5V416ZM1857.5 416H1862.5V412H1857.5V416ZM1867.5 416H1872.5V412H1867.5V416ZM1877.5 416H1882.5V412H1877.5V416ZM1887.5 416H1892.5V412H1887.5V416ZM1897.5 416H1902.5V412H1897.5V416ZM1907.5 416H1912.5V412H1907.5V416ZM1917.5 416H1920V412H1917.5V416Z" fill="#676565" fill-opacity="0.5" mask="url(#path-1-inside-1_0_42)"/>
<circle opacity="0.2" cx="1641" cy="138" r="94" stroke="white" stroke-width="2"/>
</svg>
