<svg width="1920" height="792" viewBox="0 0 1920 792" fill="none" xmlns="http://www.w3.org/2000/svg">
<mask id="path-1-inside-1_0_65" fill="white">
<path d="M0 0H1920V792H0V0Z"/>
</mask>
<path d="M0 0H1920V792H0V0Z" fill="#202020"/>
<path d="M0 793H2.5V791H0V793ZM7.5 793H12.5V791H7.5V793ZM17.5 793H22.5V791H17.5V793ZM27.5 793H32.5V791H27.5V793ZM37.5 793H42.5V791H37.5V793ZM47.5 793H52.5V791H47.5V793ZM57.5 793H62.5V791H57.5V793ZM67.5 793H72.5V791H67.5V793ZM77.5 793H82.5V791H77.5V793ZM87.5 793H92.5V791H87.5V793ZM97.5 793H102.5V791H97.5V793ZM107.5 793H112.5V791H107.5V793ZM117.5 793H122.5V791H117.5V793ZM127.5 793H132.5V791H127.5V793ZM137.5 793H142.5V791H137.5V793ZM147.5 793H152.5V791H147.5V793ZM157.5 793H162.5V791H157.5V793ZM167.5 793H172.5V791H167.5V793ZM177.5 793H182.5V791H177.5V793ZM187.5 793H192.5V791H187.5V793ZM197.5 793H202.5V791H197.5V793ZM207.5 793H212.5V791H207.5V793ZM217.5 793H222.5V791H217.5V793ZM227.5 793H232.5V791H227.5V793ZM237.5 793H242.5V791H237.5V793ZM247.5 793H252.5V791H247.5V793ZM257.5 793H262.5V791H257.5V793ZM267.5 793H272.5V791H267.5V793ZM277.5 793H282.5V791H277.5V793ZM287.5 793H292.5V791H287.5V793ZM297.5 793H302.5V791H297.5V793ZM307.5 793H312.5V791H307.5V793ZM317.5 793H322.5V791H317.5V793ZM327.5 793H332.5V791H327.5V793ZM337.5 793H342.5V791H337.5V793ZM347.5 793H352.5V791H347.5V793ZM357.5 793H362.5V791H357.5V793ZM367.5 793H372.5V791H367.5V793ZM377.5 793H382.5V791H377.5V793ZM387.5 793H392.5V791H387.5V793ZM397.5 793H402.5V791H397.5V793ZM407.5 793H412.5V791H407.5V793ZM417.5 793H422.5V791H417.5V793ZM427.5 793H432.5V791H427.5V793ZM437.5 793H442.5V791H437.5V793ZM447.5 793H452.5V791H447.5V793ZM457.5 793H462.5V791H457.5V793ZM467.5 793H472.5V791H467.5V793ZM477.5 793H482.5V791H477.5V793ZM487.5 793H492.5V791H487.5V793ZM497.5 793H502.5V791H497.5V793ZM507.5 793H512.5V791H507.5V793ZM517.5 793H522.5V791H517.5V793ZM527.5 793H532.5V791H527.5V793ZM537.5 793H542.5V791H537.5V793ZM547.5 793H552.5V791H547.5V793ZM557.5 793H562.5V791H557.5V793ZM567.5 793H572.5V791H567.5V793ZM577.5 793H582.5V791H577.5V793ZM587.5 793H592.5V791H587.5V793ZM597.5 793H602.5V791H597.5V793ZM607.5 793H612.5V791H607.5V793ZM617.5 793H622.5V791H617.5V793ZM627.5 793H632.5V791H627.5V793ZM637.5 793H642.5V791H637.5V793ZM647.5 793H652.5V791H647.5V793ZM657.5 793H662.5V791H657.5V793ZM667.5 793H672.5V791H667.5V793ZM677.5 793H682.5V791H677.5V793ZM687.5 793H692.5V791H687.5V793ZM697.5 793H702.5V791H697.5V793ZM707.5 793H712.5V791H707.5V793ZM717.5 793H722.5V791H717.5V793ZM727.5 793H732.5V791H727.5V793ZM737.5 793H742.5V791H737.5V793ZM747.5 793H752.5V791H747.5V793ZM757.5 793H762.5V791H757.5V793ZM767.5 793H772.5V791H767.5V793ZM777.5 793H782.5V791H777.5V793ZM787.5 793H792.5V791H787.5V793ZM797.5 793H802.5V791H797.5V793ZM807.5 793H812.5V791H807.5V793ZM817.5 793H822.5V791H817.5V793ZM827.5 793H832.5V791H827.5V793ZM837.5 793H842.5V791H837.5V793ZM847.5 793H852.5V791H847.5V793ZM857.5 793H862.5V791H857.5V793ZM867.5 793H872.5V791H867.5V793ZM877.5 793H882.5V791H877.5V793ZM887.5 793H892.5V791H887.5V793ZM897.5 793H902.5V791H897.5V793ZM907.5 793H912.5V791H907.5V793ZM917.5 793H922.5V791H917.5V793ZM927.5 793H932.5V791H927.5V793ZM937.5 793H942.5V791H937.5V793ZM947.5 793H952.5V791H947.5V793ZM957.5 793H962.5V791H957.5V793ZM967.5 793H972.5V791H967.5V793ZM977.5 793H982.5V791H977.5V793ZM987.5 793H992.5V791H987.5V793ZM997.5 793H1002.5V791H997.5V793ZM1007.5 793H1012.5V791H1007.5V793ZM1017.5 793H1022.5V791H1017.5V793ZM1027.5 793H1032.5V791H1027.5V793ZM1037.5 793H1042.5V791H1037.5V793ZM1047.5 793H1052.5V791H1047.5V793ZM1057.5 793H1062.5V791H1057.5V793ZM1067.5 793H1072.5V791H1067.5V793ZM1077.5 793H1082.5V791H1077.5V793ZM1087.5 793H1092.5V791H1087.5V793ZM1097.5 793H1102.5V791H1097.5V793ZM1107.5 793H1112.5V791H1107.5V793ZM1117.5 793H1122.5V791H1117.5V793ZM1127.5 793H1132.5V791H1127.5V793ZM1137.5 793H1142.5V791H1137.5V793ZM1147.5 793H1152.5V791H1147.5V793ZM1157.5 793H1162.5V791H1157.5V793ZM1167.5 793H1172.5V791H1167.5V793ZM1177.5 793H1182.5V791H1177.5V793ZM1187.5 793H1192.5V791H1187.5V793ZM1197.5 793H1202.5V791H1197.5V793ZM1207.5 793H1212.5V791H1207.5V793ZM1217.5 793H1222.5V791H1217.5V793ZM1227.5 793H1232.5V791H1227.5V793ZM1237.5 793H1242.5V791H1237.5V793ZM1247.5 793H1252.5V791H1247.5V793ZM1257.5 793H1262.5V791H1257.5V793ZM1267.5 793H1272.5V791H1267.5V793ZM1277.5 793H1282.5V791H1277.5V793ZM1287.5 793H1292.5V791H1287.5V793ZM1297.5 793H1302.5V791H1297.5V793ZM1307.5 793H1312.5V791H1307.5V793ZM1317.5 793H1322.5V791H1317.5V793ZM1327.5 793H1332.5V791H1327.5V793ZM1337.5 793H1342.5V791H1337.5V793ZM1347.5 793H1352.5V791H1347.5V793ZM1357.5 793H1362.5V791H1357.5V793ZM1367.5 793H1372.5V791H1367.5V793ZM1377.5 793H1382.5V791H1377.5V793ZM1387.5 793H1392.5V791H1387.5V793ZM1397.5 793H1402.5V791H1397.5V793ZM1407.5 793H1412.5V791H1407.5V793ZM1417.5 793H1422.5V791H1417.5V793ZM1427.5 793H1432.5V791H1427.5V793ZM1437.5 793H1442.5V791H1437.5V793ZM1447.5 793H1452.5V791H1447.5V793ZM1457.5 793H1462.5V791H1457.5V793ZM1467.5 793H1472.5V791H1467.5V793ZM1477.5 793H1482.5V791H1477.5V793ZM1487.5 793H1492.5V791H1487.5V793ZM1497.5 793H1502.5V791H1497.5V793ZM1507.5 793H1512.5V791H1507.5V793ZM1517.5 793H1522.5V791H1517.5V793ZM1527.5 793H1532.5V791H1527.5V793ZM1537.5 793H1542.5V791H1537.5V793ZM1547.5 793H1552.5V791H1547.5V793ZM1557.5 793H1562.5V791H1557.5V793ZM1567.5 793H1572.5V791H1567.5V793ZM1577.5 793H1582.5V791H1577.5V793ZM1587.5 793H1592.5V791H1587.5V793ZM1597.5 793H1602.5V791H1597.5V793ZM1607.5 793H1612.5V791H1607.5V793ZM1617.5 793H1622.5V791H1617.5V793ZM1627.5 793H1632.5V791H1627.5V793ZM1637.5 793H1642.5V791H1637.5V793ZM1647.5 793H1652.5V791H1647.5V793ZM1657.5 793H1662.5V791H1657.5V793ZM1667.5 793H1672.5V791H1667.5V793ZM1677.5 793H1682.5V791H1677.5V793ZM1687.5 793H1692.5V791H1687.5V793ZM1697.5 793H1702.5V791H1697.5V793ZM1707.5 793H1712.5V791H1707.5V793ZM1717.5 793H1722.5V791H1717.5V793ZM1727.5 793H1732.5V791H1727.5V793ZM1737.5 793H1742.5V791H1737.5V793ZM1747.5 793H1752.5V791H1747.5V793ZM1757.5 793H1762.5V791H1757.5V793ZM1767.5 793H1772.5V791H1767.5V793ZM1777.5 793H1782.5V791H1777.5V793ZM1787.5 793H1792.5V791H1787.5V793ZM1797.5 793H1802.5V791H1797.5V793ZM1807.5 793H1812.5V791H1807.5V793ZM1817.5 793H1822.5V791H1817.5V793ZM1827.5 793H1832.5V791H1827.5V793ZM1837.5 793H1842.5V791H1837.5V793ZM1847.5 793H1852.5V791H1847.5V793ZM1857.5 793H1862.5V791H1857.5V793ZM1867.5 793H1872.5V791H1867.5V793ZM1877.5 793H1882.5V791H1877.5V793ZM1887.5 793H1892.5V791H1887.5V793ZM1897.5 793H1902.5V791H1897.5V793ZM1907.5 793H1912.5V791H1907.5V793ZM1917.5 793H1920V791H1917.5V793ZM0 794H2.5V790H0V794ZM7.5 794H12.5V790H7.5V794ZM17.5 794H22.5V790H17.5V794ZM27.5 794H32.5V790H27.5V794ZM37.5 794H42.5V790H37.5V794ZM47.5 794H52.5V790H47.5V794ZM57.5 794H62.5V790H57.5V794ZM67.5 794H72.5V790H67.5V794ZM77.5 794H82.5V790H77.5V794ZM87.5 794H92.5V790H87.5V794ZM97.5 794H102.5V790H97.5V794ZM107.5 794H112.5V790H107.5V794ZM117.5 794H122.5V790H117.5V794ZM127.5 794H132.5V790H127.5V794ZM137.5 794H142.5V790H137.5V794ZM147.5 794H152.5V790H147.5V794ZM157.5 794H162.5V790H157.5V794ZM167.5 794H172.5V790H167.5V794ZM177.5 794H182.5V790H177.5V794ZM187.5 794H192.5V790H187.5V794ZM197.5 794H202.5V790H197.5V794ZM207.5 794H212.5V790H207.5V794ZM217.5 794H222.5V790H217.5V794ZM227.5 794H232.5V790H227.5V794ZM237.5 794H242.5V790H237.5V794ZM247.5 794H252.5V790H247.5V794ZM257.5 794H262.5V790H257.5V794ZM267.5 794H272.5V790H267.5V794ZM277.5 794H282.5V790H277.5V794ZM287.5 794H292.5V790H287.5V794ZM297.5 794H302.5V790H297.5V794ZM307.5 794H312.5V790H307.5V794ZM317.5 794H322.5V790H317.5V794ZM327.5 794H332.5V790H327.5V794ZM337.5 794H342.5V790H337.5V794ZM347.5 794H352.5V790H347.5V794ZM357.5 794H362.5V790H357.5V794ZM367.5 794H372.5V790H367.5V794ZM377.5 794H382.5V790H377.5V794ZM387.5 794H392.5V790H387.5V794ZM397.5 794H402.5V790H397.5V794ZM407.5 794H412.5V790H407.5V794ZM417.5 794H422.5V790H417.5V794ZM427.5 794H432.5V790H427.5V794ZM437.5 794H442.5V790H437.5V794ZM447.5 794H452.5V790H447.5V794ZM457.5 794H462.5V790H457.5V794ZM467.5 794H472.5V790H467.5V794ZM477.5 794H482.5V790H477.5V794ZM487.5 794H492.5V790H487.5V794ZM497.5 794H502.5V790H497.5V794ZM507.5 794H512.5V790H507.5V794ZM517.5 794H522.5V790H517.5V794ZM527.5 794H532.5V790H527.5V794ZM537.5 794H542.5V790H537.5V794ZM547.5 794H552.5V790H547.5V794ZM557.5 794H562.5V790H557.5V794ZM567.5 794H572.5V790H567.5V794ZM577.5 794H582.5V790H577.5V794ZM587.5 794H592.5V790H587.5V794ZM597.5 794H602.5V790H597.5V794ZM607.5 794H612.5V790H607.5V794ZM617.5 794H622.5V790H617.5V794ZM627.5 794H632.5V790H627.5V794ZM637.5 794H642.5V790H637.5V794ZM647.5 794H652.5V790H647.5V794ZM657.5 794H662.5V790H657.5V794ZM667.5 794H672.5V790H667.5V794ZM677.5 794H682.5V790H677.5V794ZM687.5 794H692.5V790H687.5V794ZM697.5 794H702.5V790H697.5V794ZM707.5 794H712.5V790H707.5V794ZM717.5 794H722.5V790H717.5V794ZM727.5 794H732.5V790H727.5V794ZM737.5 794H742.5V790H737.5V794ZM747.5 794H752.5V790H747.5V794ZM757.5 794H762.5V790H757.5V794ZM767.5 794H772.5V790H767.5V794ZM777.5 794H782.5V790H777.5V794ZM787.5 794H792.5V790H787.5V794ZM797.5 794H802.5V790H797.5V794ZM807.5 794H812.5V790H807.5V794ZM817.5 794H822.5V790H817.5V794ZM827.5 794H832.5V790H827.5V794ZM837.5 794H842.5V790H837.5V794ZM847.5 794H852.5V790H847.5V794ZM857.5 794H862.5V790H857.5V794ZM867.5 794H872.5V790H867.5V794ZM877.5 794H882.5V790H877.5V794ZM887.5 794H892.5V790H887.5V794ZM897.5 794H902.5V790H897.5V794ZM907.5 794H912.5V790H907.5V794ZM917.5 794H922.5V790H917.5V794ZM927.5 794H932.5V790H927.5V794ZM937.5 794H942.5V790H937.5V794ZM947.5 794H952.5V790H947.5V794ZM957.5 794H962.5V790H957.5V794ZM967.5 794H972.5V790H967.5V794ZM977.5 794H982.5V790H977.5V794ZM987.5 794H992.5V790H987.5V794ZM997.5 794H1002.5V790H997.5V794ZM1007.5 794H1012.5V790H1007.5V794ZM1017.5 794H1022.5V790H1017.5V794ZM1027.5 794H1032.5V790H1027.5V794ZM1037.5 794H1042.5V790H1037.5V794ZM1047.5 794H1052.5V790H1047.5V794ZM1057.5 794H1062.5V790H1057.5V794ZM1067.5 794H1072.5V790H1067.5V794ZM1077.5 794H1082.5V790H1077.5V794ZM1087.5 794H1092.5V790H1087.5V794ZM1097.5 794H1102.5V790H1097.5V794ZM1107.5 794H1112.5V790H1107.5V794ZM1117.5 794H1122.5V790H1117.5V794ZM1127.5 794H1132.5V790H1127.5V794ZM1137.5 794H1142.5V790H1137.5V794ZM1147.5 794H1152.5V790H1147.5V794ZM1157.5 794H1162.5V790H1157.5V794ZM1167.5 794H1172.5V790H1167.5V794ZM1177.5 794H1182.5V790H1177.5V794ZM1187.5 794H1192.5V790H1187.5V794ZM1197.5 794H1202.5V790H1197.5V794ZM1207.5 794H1212.5V790H1207.5V794ZM1217.5 794H1222.5V790H1217.5V794ZM1227.5 794H1232.5V790H1227.5V794ZM1237.5 794H1242.5V790H1237.5V794ZM1247.5 794H1252.5V790H1247.5V794ZM1257.5 794H1262.5V790H1257.5V794ZM1267.5 794H1272.5V790H1267.5V794ZM1277.5 794H1282.5V790H1277.5V794ZM1287.5 794H1292.5V790H1287.5V794ZM1297.5 794H1302.5V790H1297.5V794ZM1307.5 794H1312.5V790H1307.5V794ZM1317.5 794H1322.5V790H1317.5V794ZM1327.5 794H1332.5V790H1327.5V794ZM1337.5 794H1342.5V790H1337.5V794ZM1347.5 794H1352.5V790H1347.5V794ZM1357.5 794H1362.5V790H1357.5V794ZM1367.5 794H1372.5V790H1367.5V794ZM1377.5 794H1382.5V790H1377.5V794ZM1387.5 794H1392.5V790H1387.5V794ZM1397.5 794H1402.5V790H1397.5V794ZM1407.5 794H1412.5V790H1407.5V794ZM1417.5 794H1422.5V790H1417.5V794ZM1427.5 794H1432.5V790H1427.5V794ZM1437.5 794H1442.5V790H1437.5V794ZM1447.5 794H1452.5V790H1447.5V794ZM1457.5 794H1462.5V790H1457.5V794ZM1467.5 794H1472.5V790H1467.5V794ZM1477.5 794H1482.5V790H1477.5V794ZM1487.5 794H1492.5V790H1487.5V794ZM1497.5 794H1502.5V790H1497.5V794ZM1507.5 794H1512.5V790H1507.5V794ZM1517.5 794H1522.5V790H1517.5V794ZM1527.5 794H1532.5V790H1527.5V794ZM1537.5 794H1542.5V790H1537.5V794ZM1547.5 794H1552.5V790H1547.5V794ZM1557.5 794H1562.5V790H1557.5V794ZM1567.5 794H1572.5V790H1567.5V794ZM1577.5 794H1582.5V790H1577.5V794ZM1587.5 794H1592.5V790H1587.5V794ZM1597.5 794H1602.5V790H1597.5V794ZM1607.5 794H1612.5V790H1607.5V794ZM1617.5 794H1622.5V790H1617.5V794ZM1627.5 794H1632.5V790H1627.5V794ZM1637.5 794H1642.5V790H1637.5V794ZM1647.5 794H1652.5V790H1647.5V794ZM1657.5 794H1662.5V790H1657.5V794ZM1667.5 794H1672.5V790H1667.5V794ZM1677.5 794H1682.5V790H1677.5V794ZM1687.5 794H1692.5V790H1687.5V794ZM1697.5 794H1702.5V790H1697.5V794ZM1707.5 794H1712.5V790H1707.5V794ZM1717.5 794H1722.5V790H1717.5V794ZM1727.5 794H1732.5V790H1727.5V794ZM1737.5 794H1742.5V790H1737.5V794ZM1747.5 794H1752.5V790H1747.5V794ZM1757.5 794H1762.5V790H1757.5V794ZM1767.5 794H1772.5V790H1767.5V794ZM1777.5 794H1782.5V790H1777.5V794ZM1787.5 794H1792.5V790H1787.5V794ZM1797.5 794H1802.5V790H1797.5V794ZM1807.5 794H1812.5V790H1807.5V794ZM1817.5 794H1822.5V790H1817.5V794ZM1827.5 794H1832.5V790H1827.5V794ZM1837.5 794H1842.5V790H1837.5V794ZM1847.5 794H1852.5V790H1847.5V794ZM1857.5 794H1862.5V790H1857.5V794ZM1867.5 794H1872.5V790H1867.5V794ZM1877.5 794H1882.5V790H1877.5V794ZM1887.5 794H1892.5V790H1887.5V794ZM1897.5 794H1902.5V790H1897.5V794ZM1907.5 794H1912.5V790H1907.5V794ZM1917.5 794H1920V790H1917.5V794Z" fill="#676565" fill-opacity="0.5" mask="url(#path-1-inside-1_0_65)"/>
<circle opacity="0.2" cx="298" cy="284" r="151" stroke="white" stroke-width="2"/>
<circle opacity="0.2" cx="1703" cy="613" r="86" stroke="white" stroke-width="2"/>
<circle opacity="0.2" cx="1404" cy="120" r="51" stroke="white" stroke-width="2"/>
</svg>
