<svg width="1920" height="527" viewBox="0 0 1920 527" fill="none" xmlns="http://www.w3.org/2000/svg">
<g clip-path="url(#clip0_0_80)">
<mask id="path-1-inside-1_0_80" fill="white">
<path d="M0 0H1920V527H0V0Z"/>
</mask>
<path d="M0 0H1920V527H0V0Z" fill="#202020"/>
<circle opacity="0.2" cx="35.5" cy="39.5" r="138.5" stroke="white" stroke-width="2"/>
<circle opacity="0.2" cx="250" cy="619" r="155" stroke="white" stroke-width="2"/>
</g>
<path d="M0 528H2.5V526H0V528ZM7.5 528H12.5V526H7.5V528ZM17.5 528H22.5V526H17.5V528ZM27.5 528H32.5V526H27.5V528ZM37.5 528H42.5V526H37.5V528ZM47.5 528H52.5V526H47.5V528ZM57.5 528H62.5V526H57.5V528ZM67.5 528H72.5V526H67.5V528ZM77.5 528H82.5V526H77.5V528ZM87.5 528H92.5V526H87.5V528ZM97.5 528H102.5V526H97.5V528ZM107.5 528H112.5V526H107.5V528ZM117.5 528H122.5V526H117.5V528ZM127.5 528H132.5V526H127.5V528ZM137.5 528H142.5V526H137.5V528ZM147.5 528H152.5V526H147.5V528ZM157.5 528H162.5V526H157.5V528ZM167.5 528H172.5V526H167.5V528ZM177.5 528H182.5V526H177.5V528ZM187.5 528H192.5V526H187.5V528ZM197.5 528H202.5V526H197.5V528ZM207.5 528H212.5V526H207.5V528ZM217.5 528H222.5V526H217.5V528ZM227.5 528H232.5V526H227.5V528ZM237.5 528H242.5V526H237.5V528ZM247.5 528H252.5V526H247.5V528ZM257.5 528H262.5V526H257.5V528ZM267.5 528H272.5V526H267.5V528ZM277.5 528H282.5V526H277.5V528ZM287.5 528H292.5V526H287.5V528ZM297.5 528H302.5V526H297.5V528ZM307.5 528H312.5V526H307.5V528ZM317.5 528H322.5V526H317.5V528ZM327.5 528H332.5V526H327.5V528ZM337.5 528H342.5V526H337.5V528ZM347.5 528H352.5V526H347.5V528ZM357.5 528H362.5V526H357.5V528ZM367.5 528H372.5V526H367.5V528ZM377.5 528H382.5V526H377.5V528ZM387.5 528H392.5V526H387.5V528ZM397.5 528H402.5V526H397.5V528ZM407.5 528H412.5V526H407.5V528ZM417.5 528H422.5V526H417.5V528ZM427.5 528H432.5V526H427.5V528ZM437.5 528H442.5V526H437.5V528ZM447.5 528H452.5V526H447.5V528ZM457.5 528H462.5V526H457.5V528ZM467.5 528H472.5V526H467.5V528ZM477.5 528H482.5V526H477.5V528ZM487.5 528H492.5V526H487.5V528ZM497.5 528H502.5V526H497.5V528ZM507.5 528H512.5V526H507.5V528ZM517.5 528H522.5V526H517.5V528ZM527.5 528H532.5V526H527.5V528ZM537.5 528H542.5V526H537.5V528ZM547.5 528H552.5V526H547.5V528ZM557.5 528H562.5V526H557.5V528ZM567.5 528H572.5V526H567.5V528ZM577.5 528H582.5V526H577.5V528ZM587.5 528H592.5V526H587.5V528ZM597.5 528H602.5V526H597.5V528ZM607.5 528H612.5V526H607.5V528ZM617.5 528H622.5V526H617.5V528ZM627.5 528H632.5V526H627.5V528ZM637.5 528H642.5V526H637.5V528ZM647.5 528H652.5V526H647.5V528ZM657.5 528H662.5V526H657.5V528ZM667.5 528H672.5V526H667.5V528ZM677.5 528H682.5V526H677.5V528ZM687.5 528H692.5V526H687.5V528ZM697.5 528H702.5V526H697.5V528ZM707.5 528H712.5V526H707.5V528ZM717.5 528H722.5V526H717.5V528ZM727.5 528H732.5V526H727.5V528ZM737.5 528H742.5V526H737.5V528ZM747.5 528H752.5V526H747.5V528ZM757.5 528H762.5V526H757.5V528ZM767.5 528H772.5V526H767.5V528ZM777.5 528H782.5V526H777.5V528ZM787.5 528H792.5V526H787.5V528ZM797.5 528H802.5V526H797.5V528ZM807.5 528H812.5V526H807.5V528ZM817.5 528H822.5V526H817.5V528ZM827.5 528H832.5V526H827.5V528ZM837.5 528H842.5V526H837.5V528ZM847.5 528H852.5V526H847.5V528ZM857.5 528H862.5V526H857.5V528ZM867.5 528H872.5V526H867.5V528ZM877.5 528H882.5V526H877.5V528ZM887.5 528H892.5V526H887.5V528ZM897.5 528H902.5V526H897.5V528ZM907.5 528H912.5V526H907.5V528ZM917.5 528H922.5V526H917.5V528ZM927.5 528H932.5V526H927.5V528ZM937.5 528H942.5V526H937.5V528ZM947.5 528H952.5V526H947.5V528ZM957.5 528H962.5V526H957.5V528ZM967.5 528H972.5V526H967.5V528ZM977.5 528H982.5V526H977.5V528ZM987.5 528H992.5V526H987.5V528ZM997.5 528H1002.5V526H997.5V528ZM1007.5 528H1012.5V526H1007.5V528ZM1017.5 528H1022.5V526H1017.5V528ZM1027.5 528H1032.5V526H1027.5V528ZM1037.5 528H1042.5V526H1037.5V528ZM1047.5 528H1052.5V526H1047.5V528ZM1057.5 528H1062.5V526H1057.5V528ZM1067.5 528H1072.5V526H1067.5V528ZM1077.5 528H1082.5V526H1077.5V528ZM1087.5 528H1092.5V526H1087.5V528ZM1097.5 528H1102.5V526H1097.5V528ZM1107.5 528H1112.5V526H1107.5V528ZM1117.5 528H1122.5V526H1117.5V528ZM1127.5 528H1132.5V526H1127.5V528ZM1137.5 528H1142.5V526H1137.5V528ZM1147.5 528H1152.5V526H1147.5V528ZM1157.5 528H1162.5V526H1157.5V528ZM1167.5 528H1172.5V526H1167.5V528ZM1177.5 528H1182.5V526H1177.5V528ZM1187.5 528H1192.5V526H1187.5V528ZM1197.5 528H1202.5V526H1197.5V528ZM1207.5 528H1212.5V526H1207.5V528ZM1217.5 528H1222.5V526H1217.5V528ZM1227.5 528H1232.5V526H1227.5V528ZM1237.5 528H1242.5V526H1237.5V528ZM1247.5 528H1252.5V526H1247.5V528ZM1257.5 528H1262.5V526H1257.5V528ZM1267.5 528H1272.5V526H1267.5V528ZM1277.5 528H1282.5V526H1277.5V528ZM1287.5 528H1292.5V526H1287.5V528ZM1297.5 528H1302.5V526H1297.5V528ZM1307.5 528H1312.5V526H1307.5V528ZM1317.5 528H1322.5V526H1317.5V528ZM1327.5 528H1332.5V526H1327.5V528ZM1337.5 528H1342.5V526H1337.5V528ZM1347.5 528H1352.5V526H1347.5V528ZM1357.5 528H1362.5V526H1357.5V528ZM1367.5 528H1372.5V526H1367.5V528ZM1377.5 528H1382.5V526H1377.5V528ZM1387.5 528H1392.5V526H1387.5V528ZM1397.5 528H1402.5V526H1397.5V528ZM1407.5 528H1412.5V526H1407.5V528ZM1417.5 528H1422.5V526H1417.5V528ZM1427.5 528H1432.5V526H1427.5V528ZM1437.5 528H1442.5V526H1437.5V528ZM1447.5 528H1452.5V526H1447.5V528ZM1457.5 528H1462.5V526H1457.5V528ZM1467.5 528H1472.5V526H1467.5V528ZM1477.5 528H1482.5V526H1477.5V528ZM1487.5 528H1492.5V526H1487.5V528ZM1497.5 528H1502.5V526H1497.5V528ZM1507.5 528H1512.5V526H1507.5V528ZM1517.5 528H1522.5V526H1517.5V528ZM1527.5 528H1532.5V526H1527.5V528ZM1537.5 528H1542.5V526H1537.5V528ZM1547.5 528H1552.5V526H1547.5V528ZM1557.5 528H1562.5V526H1557.5V528ZM1567.5 528H1572.5V526H1567.5V528ZM1577.5 528H1582.5V526H1577.5V528ZM1587.5 528H1592.5V526H1587.5V528ZM1597.5 528H1602.5V526H1597.5V528ZM1607.5 528H1612.5V526H1607.5V528ZM1617.5 528H1622.5V526H1617.5V528ZM1627.5 528H1632.5V526H1627.5V528ZM1637.5 528H1642.5V526H1637.5V528ZM1647.5 528H1652.5V526H1647.5V528ZM1657.5 528H1662.5V526H1657.5V528ZM1667.5 528H1672.5V526H1667.5V528ZM1677.5 528H1682.5V526H1677.5V528ZM1687.5 528H1692.5V526H1687.5V528ZM1697.5 528H1702.5V526H1697.5V528ZM1707.5 528H1712.5V526H1707.5V528ZM1717.5 528H1722.5V526H1717.5V528ZM1727.5 528H1732.5V526H1727.5V528ZM1737.5 528H1742.5V526H1737.5V528ZM1747.5 528H1752.5V526H1747.5V528ZM1757.5 528H1762.5V526H1757.5V528ZM1767.5 528H1772.5V526H1767.5V528ZM1777.5 528H1782.5V526H1777.5V528ZM1787.5 528H1792.5V526H1787.5V528ZM1797.5 528H1802.5V526H1797.5V528ZM1807.5 528H1812.5V526H1807.5V528ZM1817.5 528H1822.5V526H1817.5V528ZM1827.5 528H1832.5V526H1827.5V528ZM1837.5 528H1842.5V526H1837.5V528ZM1847.5 528H1852.5V526H1847.5V528ZM1857.5 528H1862.5V526H1857.5V528ZM1867.5 528H1872.5V526H1867.5V528ZM1877.5 528H1882.5V526H1877.5V528ZM1887.5 528H1892.5V526H1887.5V528ZM1897.5 528H1902.5V526H1897.5V528ZM1907.5 528H1912.5V526H1907.5V528ZM1917.5 528H1920V526H1917.5V528ZM0 529H2.5V525H0V529ZM7.5 529H12.5V525H7.5V529ZM17.5 529H22.5V525H17.5V529ZM27.5 529H32.5V525H27.5V529ZM37.5 529H42.5V525H37.5V529ZM47.5 529H52.5V525H47.5V529ZM57.5 529H62.5V525H57.5V529ZM67.5 529H72.5V525H67.5V529ZM77.5 529H82.5V525H77.5V529ZM87.5 529H92.5V525H87.5V529ZM97.5 529H102.5V525H97.5V529ZM107.5 529H112.5V525H107.5V529ZM117.5 529H122.5V525H117.5V529ZM127.5 529H132.5V525H127.5V529ZM137.5 529H142.5V525H137.5V529ZM147.5 529H152.5V525H147.5V529ZM157.5 529H162.5V525H157.5V529ZM167.5 529H172.5V525H167.5V529ZM177.5 529H182.5V525H177.5V529ZM187.5 529H192.5V525H187.5V529ZM197.5 529H202.5V525H197.5V529ZM207.5 529H212.5V525H207.5V529ZM217.5 529H222.5V525H217.5V529ZM227.5 529H232.5V525H227.5V529ZM237.5 529H242.5V525H237.5V529ZM247.5 529H252.5V525H247.5V529ZM257.5 529H262.5V525H257.5V529ZM267.5 529H272.5V525H267.5V529ZM277.5 529H282.5V525H277.5V529ZM287.5 529H292.5V525H287.5V529ZM297.5 529H302.5V525H297.5V529ZM307.5 529H312.5V525H307.5V529ZM317.5 529H322.5V525H317.5V529ZM327.5 529H332.5V525H327.5V529ZM337.5 529H342.5V525H337.5V529ZM347.5 529H352.5V525H347.5V529ZM357.5 529H362.5V525H357.5V529ZM367.5 529H372.5V525H367.5V529ZM377.5 529H382.5V525H377.5V529ZM387.5 529H392.5V525H387.5V529ZM397.5 529H402.5V525H397.5V529ZM407.5 529H412.5V525H407.5V529ZM417.5 529H422.5V525H417.5V529ZM427.5 529H432.5V525H427.5V529ZM437.5 529H442.5V525H437.5V529ZM447.5 529H452.5V525H447.5V529ZM457.5 529H462.5V525H457.5V529ZM467.5 529H472.5V525H467.5V529ZM477.5 529H482.5V525H477.5V529ZM487.5 529H492.5V525H487.5V529ZM497.5 529H502.5V525H497.5V529ZM507.5 529H512.5V525H507.5V529ZM517.5 529H522.5V525H517.5V529ZM527.5 529H532.5V525H527.5V529ZM537.5 529H542.5V525H537.5V529ZM547.5 529H552.5V525H547.5V529ZM557.5 529H562.5V525H557.5V529ZM567.5 529H572.5V525H567.5V529ZM577.5 529H582.5V525H577.5V529ZM587.5 529H592.5V525H587.5V529ZM597.5 529H602.5V525H597.5V529ZM607.5 529H612.5V525H607.5V529ZM617.5 529H622.5V525H617.5V529ZM627.5 529H632.5V525H627.5V529ZM637.5 529H642.5V525H637.5V529ZM647.5 529H652.5V525H647.5V529ZM657.5 529H662.5V525H657.5V529ZM667.5 529H672.5V525H667.5V529ZM677.5 529H682.5V525H677.5V529ZM687.5 529H692.5V525H687.5V529ZM697.5 529H702.5V525H697.5V529ZM707.5 529H712.5V525H707.5V529ZM717.5 529H722.5V525H717.5V529ZM727.5 529H732.5V525H727.5V529ZM737.5 529H742.5V525H737.5V529ZM747.5 529H752.5V525H747.5V529ZM757.5 529H762.5V525H757.5V529ZM767.5 529H772.5V525H767.5V529ZM777.5 529H782.5V525H777.5V529ZM787.5 529H792.5V525H787.5V529ZM797.5 529H802.5V525H797.5V529ZM807.5 529H812.5V525H807.5V529ZM817.5 529H822.5V525H817.5V529ZM827.5 529H832.5V525H827.5V529ZM837.5 529H842.5V525H837.5V529ZM847.5 529H852.5V525H847.5V529ZM857.5 529H862.5V525H857.5V529ZM867.5 529H872.5V525H867.5V529ZM877.5 529H882.5V525H877.5V529ZM887.5 529H892.5V525H887.5V529ZM897.5 529H902.5V525H897.5V529ZM907.5 529H912.5V525H907.5V529ZM917.5 529H922.5V525H917.5V529ZM927.5 529H932.5V525H927.5V529ZM937.5 529H942.5V525H937.5V529ZM947.5 529H952.5V525H947.5V529ZM957.5 529H962.5V525H957.5V529ZM967.5 529H972.5V525H967.5V529ZM977.5 529H982.5V525H977.5V529ZM987.5 529H992.5V525H987.5V529ZM997.5 529H1002.5V525H997.5V529ZM1007.5 529H1012.5V525H1007.5V529ZM1017.5 529H1022.5V525H1017.5V529ZM1027.5 529H1032.5V525H1027.5V529ZM1037.5 529H1042.5V525H1037.5V529ZM1047.5 529H1052.5V525H1047.5V529ZM1057.5 529H1062.5V525H1057.5V529ZM1067.5 529H1072.5V525H1067.5V529ZM1077.5 529H1082.5V525H1077.5V529ZM1087.5 529H1092.5V525H1087.5V529ZM1097.5 529H1102.5V525H1097.5V529ZM1107.5 529H1112.5V525H1107.5V529ZM1117.5 529H1122.5V525H1117.5V529ZM1127.5 529H1132.5V525H1127.5V529ZM1137.5 529H1142.5V525H1137.5V529ZM1147.5 529H1152.5V525H1147.5V529ZM1157.5 529H1162.5V525H1157.5V529ZM1167.5 529H1172.5V525H1167.5V529ZM1177.5 529H1182.5V525H1177.5V529ZM1187.5 529H1192.5V525H1187.5V529ZM1197.5 529H1202.5V525H1197.5V529ZM1207.5 529H1212.5V525H1207.5V529ZM1217.5 529H1222.5V525H1217.5V529ZM1227.5 529H1232.5V525H1227.5V529ZM1237.5 529H1242.5V525H1237.5V529ZM1247.5 529H1252.5V525H1247.5V529ZM1257.5 529H1262.5V525H1257.5V529ZM1267.5 529H1272.5V525H1267.5V529ZM1277.5 529H1282.5V525H1277.5V529ZM1287.5 529H1292.5V525H1287.5V529ZM1297.5 529H1302.5V525H1297.5V529ZM1307.5 529H1312.5V525H1307.5V529ZM1317.5 529H1322.5V525H1317.5V529ZM1327.5 529H1332.5V525H1327.5V529ZM1337.5 529H1342.5V525H1337.5V529ZM1347.5 529H1352.5V525H1347.5V529ZM1357.5 529H1362.5V525H1357.5V529ZM1367.5 529H1372.5V525H1367.5V529ZM1377.5 529H1382.5V525H1377.5V529ZM1387.5 529H1392.5V525H1387.5V529ZM1397.5 529H1402.5V525H1397.5V529ZM1407.5 529H1412.5V525H1407.5V529ZM1417.5 529H1422.5V525H1417.5V529ZM1427.5 529H1432.5V525H1427.5V529ZM1437.5 529H1442.5V525H1437.5V529ZM1447.5 529H1452.5V525H1447.5V529ZM1457.5 529H1462.5V525H1457.5V529ZM1467.5 529H1472.5V525H1467.5V529ZM1477.5 529H1482.5V525H1477.5V529ZM1487.5 529H1492.5V525H1487.5V529ZM1497.5 529H1502.5V525H1497.5V529ZM1507.5 529H1512.5V525H1507.5V529ZM1517.5 529H1522.5V525H1517.5V529ZM1527.5 529H1532.5V525H1527.5V529ZM1537.5 529H1542.5V525H1537.5V529ZM1547.5 529H1552.5V525H1547.5V529ZM1557.5 529H1562.5V525H1557.5V529ZM1567.5 529H1572.5V525H1567.5V529ZM1577.5 529H1582.5V525H1577.5V529ZM1587.5 529H1592.5V525H1587.5V529ZM1597.5 529H1602.5V525H1597.5V529ZM1607.5 529H1612.5V525H1607.5V529ZM1617.5 529H1622.5V525H1617.5V529ZM1627.5 529H1632.5V525H1627.5V529ZM1637.5 529H1642.5V525H1637.5V529ZM1647.5 529H1652.5V525H1647.5V529ZM1657.5 529H1662.5V525H1657.5V529ZM1667.5 529H1672.5V525H1667.5V529ZM1677.5 529H1682.5V525H1677.5V529ZM1687.5 529H1692.5V525H1687.5V529ZM1697.5 529H1702.5V525H1697.5V529ZM1707.5 529H1712.5V525H1707.5V529ZM1717.5 529H1722.5V525H1717.5V529ZM1727.5 529H1732.5V525H1727.5V529ZM1737.5 529H1742.5V525H1737.5V529ZM1747.5 529H1752.5V525H1747.5V529ZM1757.5 529H1762.5V525H1757.5V529ZM1767.5 529H1772.5V525H1767.5V529ZM1777.5 529H1782.5V525H1777.5V529ZM1787.5 529H1792.5V525H1787.5V529ZM1797.5 529H1802.5V525H1797.5V529ZM1807.5 529H1812.5V525H1807.5V529ZM1817.5 529H1822.5V525H1817.5V529ZM1827.5 529H1832.5V525H1827.5V529ZM1837.5 529H1842.5V525H1837.5V529ZM1847.5 529H1852.5V525H1847.5V529ZM1857.5 529H1862.5V525H1857.5V529ZM1867.5 529H1872.5V525H1867.5V529ZM1877.5 529H1882.5V525H1877.5V529ZM1887.5 529H1892.5V525H1887.5V529ZM1897.5 529H1902.5V525H1897.5V529ZM1907.5 529H1912.5V525H1907.5V529ZM1917.5 529H1920V525H1917.5V529Z" fill="#676565" fill-opacity="0.5" mask="url(#path-1-inside-1_0_80)"/>
<defs>
<clipPath id="clip0_0_80">
<path d="M0 0H1920V527H0V0Z" fill="white"/>
</clipPath>
</defs>
</svg>
