<svg width="113" height="20" viewBox="0 0 113 20" fill="none" xmlns="http://www.w3.org/2000/svg">
<path fill-rule="evenodd" clip-rule="evenodd" d="M10.896 15.8929L5.0793 18.9509L6.1902 12.4739L1.48435 7.88683L7.98767 6.94184L10.896 1.04883L13.8044 6.94184L20.3077 7.88683L15.6019 12.4739L16.7128 18.9509L10.896 15.8929Z" stroke="#FBB23F" stroke-width="2" stroke-linecap="round" stroke-linejoin="round"/>
<path fill-rule="evenodd" clip-rule="evenodd" d="M33.7194 15.8929L27.9027 18.9509L29.0136 12.4739L24.3077 7.88683L30.811 6.94184L33.7194 1.04883L36.6278 6.94184L43.1311 7.88683L38.4253 12.4739L39.5362 18.9509L33.7194 15.8929Z" stroke="#FBB23F" stroke-width="2" stroke-linecap="round" stroke-linejoin="round"/>
<path fill-rule="evenodd" clip-rule="evenodd" d="M56.5428 15.8929L50.726 18.9509L51.8369 12.4739L47.1311 7.88683L53.6344 6.94184L56.5428 1.04883L59.4511 6.94184L65.9545 7.88683L61.2486 12.4739L62.3595 18.9509L56.5428 15.8929Z" stroke="#FBB23F" stroke-width="2" stroke-linecap="round" stroke-linejoin="round"/>
<path fill-rule="evenodd" clip-rule="evenodd" d="M79.3663 15.8929L73.5495 18.9509L74.6604 12.4739L69.9546 7.88683L76.4579 6.94184L79.3663 1.04883L82.2746 6.94184L88.778 7.88683L84.0721 12.4739L85.183 18.9509L79.3663 15.8929Z" stroke="#FBB23F" stroke-width="2" stroke-linecap="round" stroke-linejoin="round"/>
<path fill-rule="evenodd" clip-rule="evenodd" d="M102.19 15.8929L96.3729 18.9509L97.4838 12.4739L92.7779 7.88683L99.2812 6.94184L102.19 1.04883L105.098 6.94184L111.601 7.88683L106.895 12.4739L108.006 18.9509L102.19 15.8929Z" stroke="#FBB23F" stroke-width="2" stroke-linecap="round" stroke-linejoin="round"/>
</svg>
